<svg class="custom-icon" xmlns="http://www.w3.org/2000/svg" viewBox="0 0 100 100" style="height:100px;width:100px"><circle class="outer-shape" cx="50" cy="50" r="48" fill="#a5acba"/><path class="inner-shape" d="M66.334 25.5h-32.666c-4.492 0-8.168 3.676-8.168 8.168v32.664c0 4.495 3.675 8.168 8.167 8.168h32.666c4.493.001 8.167-3.672 8.167-8.167v-32.664c0-4.492-3.674-8.168-8.166-8.169zm.825 24.5h-7.971v21.438h-9.188v-21.438h-4.428v-7.014h4.428v-4.555c0-6.189 2.67-9.87 9.947-9.87h8.386v7.588h-6.849c-2.033-.004-2.285 1.06-2.285 3.039l-.011 3.797h9.188l-1.216 7.013z" fill="#f7f7f7"/></svg>