<svg class="custom-icon" xmlns="http://www.w3.org/2000/svg" viewBox="0 0 100 100" style="height:100px;width:100px"><circle class="outer-shape" cx="50" cy="50" r="48" fill="#a5acba"/><path class="inner-shape" d="M69.1 25.5h-38.2c-2.975 0-5.387 2.413-5.387 5.391v38.219c0 2.977 2.412 5.39 5.387 5.39h38.2c2.975 0 5.387-2.413 5.387-5.39v-38.219c-.001-2.977-2.413-5.391-5.387-5.391zm-19.127 15.092c5.178 0 9.376 4.2 9.376 9.381s-4.198 9.38-9.376 9.38-9.376-4.2-9.376-9.38 4.197-9.381 9.376-9.381zm18.784 26.215c0 1.083-.876 1.96-1.958 1.96h-33.627c-1.082 0-1.958-.877-1.958-1.96v-20.53h4.254c-.294 1.175-.452 2.404-.452 3.67 0 8.306 6.729 15.04 15.031 15.04s15.031-6.733 15.031-15.04c0-1.266-.158-2.495-.452-3.67h4.131v20.53zm.125-28.245c0 1.083-.877 1.96-1.959 1.96h-5.561c-1.082 0-1.958-.877-1.958-1.96v-5.565c0-1.083.877-1.96 1.958-1.96h5.561c1.083 0 1.959.877 1.959 1.96v5.565z" fill="#f7f7f7"/></svg>