<svg class="custom-icon" xmlns="http://www.w3.org/2000/svg" viewBox="0 0 100 100" style="height:100px;width:100px"><circle class="outer-shape" cx="50" cy="50" r="48" fill="#a5acba"/><path class="inner-shape" d="M74.501 34.714c-1.803.804-3.74 1.347-5.774 1.592 2.075-1.252 3.669-3.233 4.42-5.595-1.942 1.159-4.093 2-6.384 2.454-1.833-1.966-4.447-3.193-7.338-3.193-5.552 0-10.053 4.527-10.053 10.111 0 .792.088 1.564.26 2.304-8.355-.422-15.762-4.447-20.721-10.566-.865 1.494-1.361 3.231-1.361 5.084 0 3.509 1.775 6.604 4.473 8.417-1.648-.052-3.199-.507-4.553-1.264l-.001.128c0 4.899 3.466 8.986 8.065 9.915-.844.232-1.732.355-2.648.355-.648 0-1.278-.064-1.891-.181 1.28 4.017 4.992 6.941 9.391 7.022-3.441 2.712-7.776 4.329-12.486 4.329-.811 0-1.611-.048-2.398-.141 4.449 2.869 9.733 4.543 15.41 4.543 18.491 0 28.603-15.409 28.603-28.771 0-.439-.01-.874-.029-1.308 1.964-1.426 3.669-3.208 5.017-5.235z" fill="#f7f7f7"/></svg>